<?xml version="1.0" encoding="utf-8"?>
<!DOCTYPE svg PUBLIC "-//W3C//DTD SVG 1.1//EN" "http://www.w3.org/Graphics/SVG/1.1/DTD/svg11.dtd">
<svg version="1.1" id="HaLogo" xmlns="http://www.w3.org/2000/svg" xmlns:xlink="http://www.w3.org/1999/xlink" x="0px" y="0px"
	 width="512px" height="512px" viewBox="0 0 512 512" enable-background="new 0 0 512 512" xml:space="preserve">
<g id="BG">
	<circle id="outer" fill="#BC3837" stroke="#000000" stroke-width="11" stroke-miterlimit="10" stroke-linecap="round" cx="256" cy="256" r="217"/>
	<circle id="middle" fill="#471A25" cx="256" cy="256" r="75"/>
	<circle id="binding" cx="256" cy="256" r="54"/>
	<circle id="inner" fill="#BC3837" cx="256" cy="256" r="27"/>
	<g>
		<defs>
			<circle id="clipping" cx="256" cy="256" r="217"/>
		</defs>
		<clipPath id="clip_path">
			<use xlink:href="#clipping"  overflow="visible"/>
		</clipPath>
		<polygon id="triangle1" clip-path="url(#clip_path)" points="283,209.235 578.5,256 283,302.765"/>
		<use xlink:href="#triangle1" transform="rotate(120 256 256)" id="triangle2"/>
		<use xlink:href="#triangle1" transform="rotate(-120 256 256)" id="triangle3"/>
	</g>
</g>
<g display="none" id="Scratchpad">
	<polygon fill="#4754A4" points="283,302.766 202,256 283,209.234"/>
	<line id="scythe_origin1" fill="none" x1="283" y1="209.236" x2="403.237" y2="228.263"/>
	<line id="scythe_connect1" fill="none" x1="283" y1="302.766" x2="421.222" y2="281.163"/>
	<use xlink:href="#scythe_origin1" transform="rotate(120 256 256)" id="scythe_origin2"/>
	<use xlink:href="#scythe_connect1" transform="rotate(120 256 256)" id="scythe_connect2"/>
	<use xlink:href="#scythe_origin1" transform="rotate(-120 256 256)" id="scythe_origin3"/>
	<use xlink:href="#scythe_connect1" transform="rotate(-120 256 256)" id="scythe_connect3"/>
</g>
<g id="scythes">
	<g id="scythe1">
		<g>
			<path d="M162.36,60.19C270.5,35.5,392.5,133.17,403.24,228.26C377.17,154.93,283,85.83,195.61,100.63L162.36,60.19z"/>
		</g>
		<g>
			<line fill="none" stroke="#000000" stroke-width="4" stroke-miterlimit="10" x1="195.61" y1="100.63" x2="162.36" y2="60.19"/>
			<path fill="none" stroke="#000000" stroke-width="4" stroke-linecap="square" stroke-miterlimit="10" d="M162.36,60.19
				C270.5,35.5,392.5,133.17,403.24,228.26"/>
			<path fill="none" stroke="#000000" stroke-width="4" stroke-linecap="square" stroke-miterlimit="10" d="M195.61,100.63
				c87.39-14.8,181.56,54.3,207.63,127.63"/>
		</g>
	</g>
	<use xlink:href="#scythe1" transform="rotate(120 256 256)" id="scythe2"/>
	<use xlink:href="#scythe1" transform="rotate(-120 256 256)" id="scythe3"/>
</g>
</svg>
